<mxfile host="app.diagrams.net" modified="2023-04-25T09:58:56.705Z" agent="Mozilla/5.0 (Windows NT 10.0; Win64; x64) AppleWebKit/537.36 (KHTML, like Gecko) Chrome/112.0.0.0 Safari/537.36" etag="0JKPFvVh_dwEY1rHCWs-" version="21.2.1" type="device">
  <diagram name="Page-1" id="F-vxeL1QAighRUILPrq-">
    <mxGraphModel dx="2100" dy="1082" grid="1" gridSize="10" guides="1" tooltips="1" connect="1" arrows="1" fold="1" page="1" pageScale="1" pageWidth="850" pageHeight="1100" math="0" shadow="0">
      <root>
        <mxCell id="0" />
        <mxCell id="1" parent="0" />
        <mxCell id="FgJaP-sVPUD8eVptEW6E-1" value="" style="rounded=0;whiteSpace=wrap;html=1;" vertex="1" parent="1">
          <mxGeometry x="153" y="340" width="80" height="40" as="geometry" />
        </mxCell>
        <mxCell id="FgJaP-sVPUD8eVptEW6E-2" value="&lt;h2&gt;&lt;font style=&quot;font-size: 18px; font-weight: normal;&quot; face=&quot;Courier New&quot;&gt;Users&lt;/font&gt;&lt;/h2&gt;" style="text;html=1;strokeColor=none;fillColor=none;align=center;verticalAlign=middle;whiteSpace=wrap;rounded=0;" vertex="1" parent="1">
          <mxGeometry x="160.5" y="345" width="65" height="30" as="geometry" />
        </mxCell>
        <mxCell id="FgJaP-sVPUD8eVptEW6E-5" value="" style="rounded=0;whiteSpace=wrap;html=1;" vertex="1" parent="1">
          <mxGeometry x="473" y="340" width="80" height="40" as="geometry" />
        </mxCell>
        <mxCell id="FgJaP-sVPUD8eVptEW6E-6" value="&lt;h2&gt;&lt;font style=&quot;font-size: 18px; font-weight: normal;&quot; face=&quot;Courier New&quot;&gt;Films&lt;/font&gt;&lt;/h2&gt;" style="text;html=1;strokeColor=none;fillColor=none;align=center;verticalAlign=middle;whiteSpace=wrap;rounded=0;" vertex="1" parent="1">
          <mxGeometry x="480.5" y="345" width="65" height="30" as="geometry" />
        </mxCell>
        <mxCell id="FgJaP-sVPUD8eVptEW6E-7" value="" style="ellipse;whiteSpace=wrap;html=1;" vertex="1" parent="1">
          <mxGeometry x="68" y="270" width="80" height="50" as="geometry" />
        </mxCell>
        <mxCell id="FgJaP-sVPUD8eVptEW6E-8" value="&lt;h2&gt;&lt;font style=&quot;font-weight: normal; font-size: 14px;&quot; face=&quot;Courier New&quot;&gt;no_telp&lt;/font&gt;&lt;/h2&gt;" style="text;html=1;strokeColor=none;fillColor=none;align=center;verticalAlign=middle;whiteSpace=wrap;rounded=0;" vertex="1" parent="1">
          <mxGeometry x="73" y="280" width="70" height="30" as="geometry" />
        </mxCell>
        <mxCell id="FgJaP-sVPUD8eVptEW6E-9" value="" style="ellipse;whiteSpace=wrap;html=1;" vertex="1" parent="1">
          <mxGeometry x="103" y="210" width="80" height="50" as="geometry" />
        </mxCell>
        <mxCell id="FgJaP-sVPUD8eVptEW6E-10" value="&lt;h2&gt;&lt;font style=&quot;font-weight: normal; font-size: 14px;&quot; face=&quot;Courier New&quot;&gt;username&lt;/font&gt;&lt;/h2&gt;" style="text;html=1;strokeColor=none;fillColor=none;align=center;verticalAlign=middle;whiteSpace=wrap;rounded=0;" vertex="1" parent="1">
          <mxGeometry x="105.5" y="220" width="75" height="30" as="geometry" />
        </mxCell>
        <mxCell id="FgJaP-sVPUD8eVptEW6E-11" value="" style="ellipse;whiteSpace=wrap;html=1;" vertex="1" parent="1">
          <mxGeometry x="203" y="210" width="80" height="50" as="geometry" />
        </mxCell>
        <mxCell id="FgJaP-sVPUD8eVptEW6E-12" value="&lt;h2&gt;&lt;font style=&quot;font-weight: normal; font-size: 14px;&quot; face=&quot;Courier New&quot;&gt;password&lt;/font&gt;&lt;/h2&gt;" style="text;html=1;strokeColor=none;fillColor=none;align=center;verticalAlign=middle;whiteSpace=wrap;rounded=0;" vertex="1" parent="1">
          <mxGeometry x="205.5" y="220" width="75" height="30" as="geometry" />
        </mxCell>
        <mxCell id="FgJaP-sVPUD8eVptEW6E-13" value="" style="ellipse;whiteSpace=wrap;html=1;" vertex="1" parent="1">
          <mxGeometry x="233" y="270" width="100" height="50" as="geometry" />
        </mxCell>
        <mxCell id="FgJaP-sVPUD8eVptEW6E-14" value="&lt;h2&gt;&lt;font style=&quot;font-weight: normal; font-size: 14px;&quot; face=&quot;Courier New&quot;&gt;level_user&lt;/font&gt;&lt;/h2&gt;" style="text;html=1;strokeColor=none;fillColor=none;align=center;verticalAlign=middle;whiteSpace=wrap;rounded=0;" vertex="1" parent="1">
          <mxGeometry x="236.75" y="280" width="92.5" height="30" as="geometry" />
        </mxCell>
        <mxCell id="FgJaP-sVPUD8eVptEW6E-15" value="" style="ellipse;whiteSpace=wrap;html=1;" vertex="1" parent="1">
          <mxGeometry x="180.5" y="395" width="70" height="35" as="geometry" />
        </mxCell>
        <mxCell id="FgJaP-sVPUD8eVptEW6E-16" value="&lt;h2&gt;&lt;font style=&quot;font-weight: normal; font-size: 14px;&quot; face=&quot;Courier New&quot;&gt;email&lt;/font&gt;&lt;/h2&gt;" style="text;html=1;strokeColor=none;fillColor=none;align=center;verticalAlign=middle;whiteSpace=wrap;rounded=0;" vertex="1" parent="1">
          <mxGeometry x="186.75" y="395" width="60" height="30" as="geometry" />
        </mxCell>
        <mxCell id="FgJaP-sVPUD8eVptEW6E-17" value="" style="ellipse;whiteSpace=wrap;html=1;" vertex="1" parent="1">
          <mxGeometry x="153" y="160" width="80" height="50" as="geometry" />
        </mxCell>
        <mxCell id="FgJaP-sVPUD8eVptEW6E-18" value="&lt;h2&gt;&lt;font style=&quot;font-weight: normal; font-size: 14px;&quot; face=&quot;Courier New&quot;&gt;user_id&lt;/font&gt;&lt;/h2&gt;" style="text;html=1;strokeColor=none;fillColor=none;align=center;verticalAlign=middle;whiteSpace=wrap;rounded=0;" vertex="1" parent="1">
          <mxGeometry x="153" y="170" width="75" height="30" as="geometry" />
        </mxCell>
        <mxCell id="FgJaP-sVPUD8eVptEW6E-22" value="" style="endArrow=none;html=1;rounded=0;entryX=0.5;entryY=1;entryDx=0;entryDy=0;exitX=0.5;exitY=0;exitDx=0;exitDy=0;" edge="1" parent="1" source="FgJaP-sVPUD8eVptEW6E-1" target="FgJaP-sVPUD8eVptEW6E-7">
          <mxGeometry width="50" height="50" relative="1" as="geometry">
            <mxPoint x="393" y="320" as="sourcePoint" />
            <mxPoint x="443" y="270" as="targetPoint" />
          </mxGeometry>
        </mxCell>
        <mxCell id="FgJaP-sVPUD8eVptEW6E-23" value="" style="endArrow=none;html=1;rounded=0;exitX=0.5;exitY=0;exitDx=0;exitDy=0;entryX=0.5;entryY=1;entryDx=0;entryDy=0;" edge="1" parent="1" source="FgJaP-sVPUD8eVptEW6E-1" target="FgJaP-sVPUD8eVptEW6E-9">
          <mxGeometry width="50" height="50" relative="1" as="geometry">
            <mxPoint x="393" y="320" as="sourcePoint" />
            <mxPoint x="443" y="270" as="targetPoint" />
          </mxGeometry>
        </mxCell>
        <mxCell id="FgJaP-sVPUD8eVptEW6E-24" value="" style="endArrow=none;html=1;rounded=0;exitX=0.5;exitY=0;exitDx=0;exitDy=0;entryX=0.5;entryY=1;entryDx=0;entryDy=0;" edge="1" parent="1" source="FgJaP-sVPUD8eVptEW6E-1" target="FgJaP-sVPUD8eVptEW6E-11">
          <mxGeometry width="50" height="50" relative="1" as="geometry">
            <mxPoint x="393" y="320" as="sourcePoint" />
            <mxPoint x="443" y="270" as="targetPoint" />
          </mxGeometry>
        </mxCell>
        <mxCell id="FgJaP-sVPUD8eVptEW6E-25" value="" style="endArrow=none;html=1;rounded=0;exitX=0.5;exitY=0;exitDx=0;exitDy=0;entryX=0.5;entryY=1;entryDx=0;entryDy=0;" edge="1" parent="1" source="FgJaP-sVPUD8eVptEW6E-1" target="FgJaP-sVPUD8eVptEW6E-13">
          <mxGeometry width="50" height="50" relative="1" as="geometry">
            <mxPoint x="393" y="320" as="sourcePoint" />
            <mxPoint x="443" y="270" as="targetPoint" />
          </mxGeometry>
        </mxCell>
        <mxCell id="FgJaP-sVPUD8eVptEW6E-27" value="" style="endArrow=none;html=1;rounded=0;exitX=0.5;exitY=1;exitDx=0;exitDy=0;entryX=0.5;entryY=0;entryDx=0;entryDy=0;" edge="1" parent="1" source="FgJaP-sVPUD8eVptEW6E-17" target="FgJaP-sVPUD8eVptEW6E-1">
          <mxGeometry width="50" height="50" relative="1" as="geometry">
            <mxPoint x="393" y="320" as="sourcePoint" />
            <mxPoint x="213" y="280" as="targetPoint" />
          </mxGeometry>
        </mxCell>
        <mxCell id="FgJaP-sVPUD8eVptEW6E-28" value="" style="rhombus;whiteSpace=wrap;html=1;" vertex="1" parent="1">
          <mxGeometry x="313" y="320" width="80" height="80" as="geometry" />
        </mxCell>
        <mxCell id="FgJaP-sVPUD8eVptEW6E-29" value="&lt;h2&gt;&lt;font style=&quot;font-weight: normal; font-size: 14px;&quot; face=&quot;Courier New&quot;&gt;Choose&lt;/font&gt;&lt;/h2&gt;" style="text;html=1;strokeColor=none;fillColor=none;align=center;verticalAlign=middle;whiteSpace=wrap;rounded=0;" vertex="1" parent="1">
          <mxGeometry x="320.5" y="345" width="62.5" height="30" as="geometry" />
        </mxCell>
        <mxCell id="FgJaP-sVPUD8eVptEW6E-31" value="" style="endArrow=none;html=1;rounded=0;exitX=0;exitY=0.5;exitDx=0;exitDy=0;entryX=1;entryY=0.5;entryDx=0;entryDy=0;" edge="1" parent="1" source="FgJaP-sVPUD8eVptEW6E-28" target="FgJaP-sVPUD8eVptEW6E-1">
          <mxGeometry width="50" height="50" relative="1" as="geometry">
            <mxPoint x="353" y="320" as="sourcePoint" />
            <mxPoint x="403" y="270" as="targetPoint" />
          </mxGeometry>
        </mxCell>
        <mxCell id="FgJaP-sVPUD8eVptEW6E-32" value="" style="endArrow=none;html=1;rounded=0;exitX=1;exitY=0.5;exitDx=0;exitDy=0;entryX=0;entryY=0.5;entryDx=0;entryDy=0;" edge="1" parent="1" source="FgJaP-sVPUD8eVptEW6E-28" target="FgJaP-sVPUD8eVptEW6E-5">
          <mxGeometry width="50" height="50" relative="1" as="geometry">
            <mxPoint x="353" y="320" as="sourcePoint" />
            <mxPoint x="403" y="270" as="targetPoint" />
          </mxGeometry>
        </mxCell>
        <mxCell id="FgJaP-sVPUD8eVptEW6E-33" value="" style="ellipse;whiteSpace=wrap;html=1;" vertex="1" parent="1">
          <mxGeometry x="388" y="280" width="80" height="50" as="geometry" />
        </mxCell>
        <mxCell id="FgJaP-sVPUD8eVptEW6E-34" value="&lt;h2&gt;&lt;font style=&quot;font-weight: normal; font-size: 14px;&quot; face=&quot;Courier New&quot;&gt;film_id&lt;/font&gt;&lt;/h2&gt;" style="text;html=1;strokeColor=none;fillColor=none;align=center;verticalAlign=middle;whiteSpace=wrap;rounded=0;" vertex="1" parent="1">
          <mxGeometry x="393" y="290" width="70" height="30" as="geometry" />
        </mxCell>
        <mxCell id="FgJaP-sVPUD8eVptEW6E-35" value="" style="ellipse;whiteSpace=wrap;html=1;" vertex="1" parent="1">
          <mxGeometry x="428" y="230" width="65" height="40" as="geometry" />
        </mxCell>
        <mxCell id="FgJaP-sVPUD8eVptEW6E-36" value="&lt;h2&gt;&lt;font style=&quot;font-weight: normal; font-size: 14px;&quot; face=&quot;Courier New&quot;&gt;kode&lt;/font&gt;&lt;/h2&gt;" style="text;html=1;strokeColor=none;fillColor=none;align=center;verticalAlign=middle;whiteSpace=wrap;rounded=0;" vertex="1" parent="1">
          <mxGeometry x="436.75" y="235" width="47.5" height="30" as="geometry" />
        </mxCell>
        <mxCell id="FgJaP-sVPUD8eVptEW6E-37" value="" style="ellipse;whiteSpace=wrap;html=1;" vertex="1" parent="1">
          <mxGeometry x="533" y="230" width="65" height="40" as="geometry" />
        </mxCell>
        <mxCell id="FgJaP-sVPUD8eVptEW6E-38" value="&lt;h2&gt;&lt;font style=&quot;font-weight: normal; font-size: 14px;&quot; face=&quot;Courier New&quot;&gt;judul&lt;/font&gt;&lt;/h2&gt;" style="text;html=1;strokeColor=none;fillColor=none;align=center;verticalAlign=middle;whiteSpace=wrap;rounded=0;" vertex="1" parent="1">
          <mxGeometry x="539.25" y="235" width="52.5" height="30" as="geometry" />
        </mxCell>
        <mxCell id="FgJaP-sVPUD8eVptEW6E-39" value="" style="ellipse;whiteSpace=wrap;html=1;" vertex="1" parent="1">
          <mxGeometry x="558" y="280" width="80" height="50" as="geometry" />
        </mxCell>
        <mxCell id="FgJaP-sVPUD8eVptEW6E-40" value="&lt;h2&gt;&lt;font style=&quot;font-weight: normal; font-size: 14px;&quot; face=&quot;Courier New&quot;&gt;genre_id&lt;/font&gt;&lt;/h2&gt;" style="text;html=1;strokeColor=none;fillColor=none;align=center;verticalAlign=middle;whiteSpace=wrap;rounded=0;" vertex="1" parent="1">
          <mxGeometry x="558" y="290" width="80" height="30" as="geometry" />
        </mxCell>
        <mxCell id="FgJaP-sVPUD8eVptEW6E-41" value="" style="ellipse;whiteSpace=wrap;html=1;" vertex="1" parent="1">
          <mxGeometry x="473" y="180" width="80" height="40" as="geometry" />
        </mxCell>
        <mxCell id="FgJaP-sVPUD8eVptEW6E-42" value="&lt;h2&gt;&lt;font style=&quot;font-weight: normal; font-size: 14px;&quot; face=&quot;Courier New&quot;&gt;kategori&lt;/font&gt;&lt;/h2&gt;" style="text;html=1;strokeColor=none;fillColor=none;align=center;verticalAlign=middle;whiteSpace=wrap;rounded=0;" vertex="1" parent="1">
          <mxGeometry x="475.5" y="185" width="75" height="30" as="geometry" />
        </mxCell>
        <mxCell id="FgJaP-sVPUD8eVptEW6E-43" value="" style="endArrow=none;html=1;rounded=0;entryX=0.5;entryY=0;entryDx=0;entryDy=0;exitX=0.5;exitY=1;exitDx=0;exitDy=0;" edge="1" parent="1" source="FgJaP-sVPUD8eVptEW6E-41" target="FgJaP-sVPUD8eVptEW6E-5">
          <mxGeometry width="50" height="50" relative="1" as="geometry">
            <mxPoint x="353" y="230" as="sourcePoint" />
            <mxPoint x="503" y="310" as="targetPoint" />
          </mxGeometry>
        </mxCell>
        <mxCell id="FgJaP-sVPUD8eVptEW6E-44" value="" style="endArrow=none;html=1;rounded=0;exitX=0.5;exitY=0;exitDx=0;exitDy=0;entryX=0.5;entryY=1;entryDx=0;entryDy=0;" edge="1" parent="1" source="FgJaP-sVPUD8eVptEW6E-5" target="FgJaP-sVPUD8eVptEW6E-35">
          <mxGeometry width="50" height="50" relative="1" as="geometry">
            <mxPoint x="353" y="230" as="sourcePoint" />
            <mxPoint x="403" y="180" as="targetPoint" />
          </mxGeometry>
        </mxCell>
        <mxCell id="FgJaP-sVPUD8eVptEW6E-45" value="" style="endArrow=none;html=1;rounded=0;exitX=0.5;exitY=0;exitDx=0;exitDy=0;entryX=0.5;entryY=1;entryDx=0;entryDy=0;" edge="1" parent="1" source="FgJaP-sVPUD8eVptEW6E-5" target="FgJaP-sVPUD8eVptEW6E-37">
          <mxGeometry width="50" height="50" relative="1" as="geometry">
            <mxPoint x="353" y="230" as="sourcePoint" />
            <mxPoint x="403" y="180" as="targetPoint" />
          </mxGeometry>
        </mxCell>
        <mxCell id="FgJaP-sVPUD8eVptEW6E-46" value="" style="endArrow=none;html=1;rounded=0;exitX=0.5;exitY=0;exitDx=0;exitDy=0;entryX=0;entryY=0.5;entryDx=0;entryDy=0;" edge="1" parent="1" source="FgJaP-sVPUD8eVptEW6E-5" target="FgJaP-sVPUD8eVptEW6E-39">
          <mxGeometry width="50" height="50" relative="1" as="geometry">
            <mxPoint x="353" y="230" as="sourcePoint" />
            <mxPoint x="403" y="180" as="targetPoint" />
          </mxGeometry>
        </mxCell>
        <mxCell id="FgJaP-sVPUD8eVptEW6E-47" value="" style="endArrow=none;html=1;rounded=0;exitX=0.5;exitY=0;exitDx=0;exitDy=0;entryX=1;entryY=0.5;entryDx=0;entryDy=0;" edge="1" parent="1" source="FgJaP-sVPUD8eVptEW6E-5" target="FgJaP-sVPUD8eVptEW6E-33">
          <mxGeometry width="50" height="50" relative="1" as="geometry">
            <mxPoint x="353" y="230" as="sourcePoint" />
            <mxPoint x="403" y="180" as="targetPoint" />
          </mxGeometry>
        </mxCell>
        <mxCell id="FgJaP-sVPUD8eVptEW6E-48" value="" style="rhombus;whiteSpace=wrap;html=1;" vertex="1" parent="1">
          <mxGeometry x="643" y="320" width="85" height="80" as="geometry" />
        </mxCell>
        <mxCell id="FgJaP-sVPUD8eVptEW6E-49" value="&lt;h2&gt;&lt;font style=&quot;font-weight: normal; font-size: 14px;&quot; face=&quot;Courier New&quot;&gt;Has&lt;/font&gt;&lt;/h2&gt;" style="text;html=1;strokeColor=none;fillColor=none;align=center;verticalAlign=middle;whiteSpace=wrap;rounded=0;" vertex="1" parent="1">
          <mxGeometry x="659.88" y="345" width="51.25" height="30" as="geometry" />
        </mxCell>
        <mxCell id="FgJaP-sVPUD8eVptEW6E-51" value="" style="endArrow=none;html=1;rounded=0;exitX=1;exitY=0.5;exitDx=0;exitDy=0;entryX=0;entryY=0.5;entryDx=0;entryDy=0;" edge="1" parent="1" source="FgJaP-sVPUD8eVptEW6E-5" target="FgJaP-sVPUD8eVptEW6E-48">
          <mxGeometry width="50" height="50" relative="1" as="geometry">
            <mxPoint x="353" y="210" as="sourcePoint" />
            <mxPoint x="403" y="160" as="targetPoint" />
          </mxGeometry>
        </mxCell>
        <mxCell id="FgJaP-sVPUD8eVptEW6E-52" value="" style="rounded=0;whiteSpace=wrap;html=1;" vertex="1" parent="1">
          <mxGeometry x="625.5" y="220" width="120" height="40" as="geometry" />
        </mxCell>
        <mxCell id="FgJaP-sVPUD8eVptEW6E-54" value="" style="ellipse;whiteSpace=wrap;html=1;" vertex="1" parent="1">
          <mxGeometry x="645.5" y="120" width="80" height="50" as="geometry" />
        </mxCell>
        <mxCell id="FgJaP-sVPUD8eVptEW6E-55" value="&lt;h2&gt;&lt;font style=&quot;font-weight: normal; font-size: 14px;&quot; face=&quot;Courier New&quot;&gt;genre_id&lt;/font&gt;&lt;/h2&gt;" style="text;html=1;strokeColor=none;fillColor=none;align=center;verticalAlign=middle;whiteSpace=wrap;rounded=0;" vertex="1" parent="1">
          <mxGeometry x="645.5" y="130" width="75" height="30" as="geometry" />
        </mxCell>
        <mxCell id="FgJaP-sVPUD8eVptEW6E-56" value="" style="ellipse;whiteSpace=wrap;html=1;" vertex="1" parent="1">
          <mxGeometry x="595.5" y="170" width="65" height="40" as="geometry" />
        </mxCell>
        <mxCell id="FgJaP-sVPUD8eVptEW6E-57" value="&lt;h2&gt;&lt;font style=&quot;font-weight: normal; font-size: 14px;&quot; face=&quot;Courier New&quot;&gt;kode&lt;/font&gt;&lt;/h2&gt;" style="text;html=1;strokeColor=none;fillColor=none;align=center;verticalAlign=middle;whiteSpace=wrap;rounded=0;" vertex="1" parent="1">
          <mxGeometry x="603" y="175" width="50" height="30" as="geometry" />
        </mxCell>
        <mxCell id="FgJaP-sVPUD8eVptEW6E-58" value="" style="ellipse;whiteSpace=wrap;html=1;" vertex="1" parent="1">
          <mxGeometry x="705.5" y="170" width="65" height="40" as="geometry" />
        </mxCell>
        <mxCell id="FgJaP-sVPUD8eVptEW6E-59" value="&lt;h2&gt;&lt;font style=&quot;font-weight: normal; font-size: 14px;&quot; face=&quot;Courier New&quot;&gt;nama&lt;/font&gt;&lt;/h2&gt;" style="text;html=1;strokeColor=none;fillColor=none;align=center;verticalAlign=middle;whiteSpace=wrap;rounded=0;" vertex="1" parent="1">
          <mxGeometry x="711.75" y="175" width="50" height="30" as="geometry" />
        </mxCell>
        <mxCell id="FgJaP-sVPUD8eVptEW6E-65" value="" style="endArrow=none;html=1;rounded=0;entryX=0.5;entryY=0;entryDx=0;entryDy=0;exitX=1;exitY=0.5;exitDx=0;exitDy=0;" edge="1" parent="1" source="FgJaP-sVPUD8eVptEW6E-56" target="FgJaP-sVPUD8eVptEW6E-52">
          <mxGeometry width="50" height="50" relative="1" as="geometry">
            <mxPoint x="353" y="190" as="sourcePoint" />
            <mxPoint x="423" y="160" as="targetPoint" />
          </mxGeometry>
        </mxCell>
        <mxCell id="FgJaP-sVPUD8eVptEW6E-66" value="" style="endArrow=none;html=1;rounded=0;entryX=0.5;entryY=1;entryDx=0;entryDy=0;exitX=0.5;exitY=0;exitDx=0;exitDy=0;" edge="1" parent="1" source="FgJaP-sVPUD8eVptEW6E-52" target="FgJaP-sVPUD8eVptEW6E-54">
          <mxGeometry width="50" height="50" relative="1" as="geometry">
            <mxPoint x="363" y="200" as="sourcePoint" />
            <mxPoint x="433" y="170" as="targetPoint" />
          </mxGeometry>
        </mxCell>
        <mxCell id="FgJaP-sVPUD8eVptEW6E-67" value="" style="endArrow=none;html=1;rounded=0;entryX=0.5;entryY=0;entryDx=0;entryDy=0;exitX=0;exitY=0.5;exitDx=0;exitDy=0;" edge="1" parent="1" source="FgJaP-sVPUD8eVptEW6E-58" target="FgJaP-sVPUD8eVptEW6E-52">
          <mxGeometry width="50" height="50" relative="1" as="geometry">
            <mxPoint x="373" y="210" as="sourcePoint" />
            <mxPoint x="443" y="180" as="targetPoint" />
          </mxGeometry>
        </mxCell>
        <mxCell id="FgJaP-sVPUD8eVptEW6E-72" value="&lt;h2&gt;&lt;font style=&quot;font-size: 18px; font-weight: normal;&quot; face=&quot;Courier New&quot;&gt;Genre Film&lt;/font&gt;&lt;/h2&gt;" style="text;html=1;strokeColor=none;fillColor=none;align=center;verticalAlign=middle;whiteSpace=wrap;rounded=0;" vertex="1" parent="1">
          <mxGeometry x="624.25" y="225" width="117.5" height="30" as="geometry" />
        </mxCell>
        <mxCell id="FgJaP-sVPUD8eVptEW6E-73" value="" style="endArrow=none;html=1;rounded=0;entryX=0.5;entryY=1;entryDx=0;entryDy=0;exitX=0.5;exitY=0;exitDx=0;exitDy=0;" edge="1" parent="1" source="FgJaP-sVPUD8eVptEW6E-48" target="FgJaP-sVPUD8eVptEW6E-52">
          <mxGeometry width="50" height="50" relative="1" as="geometry">
            <mxPoint x="383" y="300" as="sourcePoint" />
            <mxPoint x="433" y="250" as="targetPoint" />
          </mxGeometry>
        </mxCell>
        <mxCell id="FgJaP-sVPUD8eVptEW6E-74" value="" style="ellipse;whiteSpace=wrap;html=1;" vertex="1" parent="1">
          <mxGeometry x="395.5" y="385" width="65" height="40" as="geometry" />
        </mxCell>
        <mxCell id="FgJaP-sVPUD8eVptEW6E-75" value="&lt;h2&gt;&lt;font style=&quot;font-weight: normal; font-size: 14px;&quot; face=&quot;Courier New&quot;&gt;desc&lt;/font&gt;&lt;/h2&gt;" style="text;html=1;strokeColor=none;fillColor=none;align=center;verticalAlign=middle;whiteSpace=wrap;rounded=0;" vertex="1" parent="1">
          <mxGeometry x="406" y="390" width="45" height="30" as="geometry" />
        </mxCell>
        <mxCell id="FgJaP-sVPUD8eVptEW6E-76" value="" style="endArrow=none;html=1;rounded=0;exitX=0.5;exitY=0;exitDx=0;exitDy=0;" edge="1" parent="1" source="FgJaP-sVPUD8eVptEW6E-74">
          <mxGeometry width="50" height="50" relative="1" as="geometry">
            <mxPoint x="383" y="280" as="sourcePoint" />
            <mxPoint x="473" y="360" as="targetPoint" />
          </mxGeometry>
        </mxCell>
        <mxCell id="FgJaP-sVPUD8eVptEW6E-77" value="" style="rounded=0;whiteSpace=wrap;html=1;" vertex="1" parent="1">
          <mxGeometry x="635.5" y="520" width="100" height="40" as="geometry" />
        </mxCell>
        <mxCell id="FgJaP-sVPUD8eVptEW6E-78" value="&lt;h2&gt;&lt;font style=&quot;font-size: 18px; font-weight: normal;&quot; face=&quot;Courier New&quot;&gt;Schedule&lt;/font&gt;&lt;/h2&gt;" style="text;html=1;strokeColor=none;fillColor=none;align=center;verticalAlign=middle;whiteSpace=wrap;rounded=0;" vertex="1" parent="1">
          <mxGeometry x="640.5" y="525" width="90" height="30" as="geometry" />
        </mxCell>
        <mxCell id="FgJaP-sVPUD8eVptEW6E-79" value="" style="endArrow=none;html=1;rounded=0;exitX=0.5;exitY=0;exitDx=0;exitDy=0;entryX=0.5;entryY=1;entryDx=0;entryDy=0;" edge="1" parent="1" source="FgJaP-sVPUD8eVptEW6E-77" target="FgJaP-sVPUD8eVptEW6E-48">
          <mxGeometry width="50" height="50" relative="1" as="geometry">
            <mxPoint x="383" y="390" as="sourcePoint" />
            <mxPoint x="433" y="340" as="targetPoint" />
          </mxGeometry>
        </mxCell>
        <mxCell id="FgJaP-sVPUD8eVptEW6E-80" value="" style="rhombus;whiteSpace=wrap;html=1;" vertex="1" parent="1">
          <mxGeometry x="444.25" y="500" width="95" height="80" as="geometry" />
        </mxCell>
        <mxCell id="FgJaP-sVPUD8eVptEW6E-81" value="&lt;h2&gt;&lt;font style=&quot;font-weight: normal; font-size: 14px;&quot; face=&quot;Courier New&quot;&gt;Contain&lt;/font&gt;&lt;/h2&gt;" style="text;html=1;strokeColor=none;fillColor=none;align=center;verticalAlign=middle;whiteSpace=wrap;rounded=0;" vertex="1" parent="1">
          <mxGeometry x="455.5" y="525" width="72.5" height="30" as="geometry" />
        </mxCell>
        <mxCell id="FgJaP-sVPUD8eVptEW6E-84" value="" style="ellipse;whiteSpace=wrap;html=1;" vertex="1" parent="1">
          <mxGeometry x="563" y="410" width="105" height="50" as="geometry" />
        </mxCell>
        <mxCell id="FgJaP-sVPUD8eVptEW6E-85" value="&lt;h2&gt;&lt;font style=&quot;font-weight: normal; font-size: 14px;&quot; face=&quot;Courier New&quot;&gt;schedule_id&lt;/font&gt;&lt;/h2&gt;" style="text;html=1;strokeColor=none;fillColor=none;align=center;verticalAlign=middle;whiteSpace=wrap;rounded=0;" vertex="1" parent="1">
          <mxGeometry x="564.25" y="420" width="102.5" height="30" as="geometry" />
        </mxCell>
        <mxCell id="FgJaP-sVPUD8eVptEW6E-86" value="" style="ellipse;whiteSpace=wrap;html=1;" vertex="1" parent="1">
          <mxGeometry x="746.75" y="470" width="80" height="40" as="geometry" />
        </mxCell>
        <mxCell id="FgJaP-sVPUD8eVptEW6E-87" value="&lt;h2&gt;&lt;font face=&quot;Courier New&quot;&gt;&lt;span style=&quot;font-size: 14px; font-weight: 400;&quot;&gt;film_id&lt;/span&gt;&lt;/font&gt;&lt;/h2&gt;" style="text;html=1;strokeColor=none;fillColor=none;align=center;verticalAlign=middle;whiteSpace=wrap;rounded=0;" vertex="1" parent="1">
          <mxGeometry x="751.75" y="475" width="71.25" height="30" as="geometry" />
        </mxCell>
        <mxCell id="FgJaP-sVPUD8eVptEW6E-88" value="" style="ellipse;whiteSpace=wrap;html=1;" vertex="1" parent="1">
          <mxGeometry x="703" y="410" width="90" height="50" as="geometry" />
        </mxCell>
        <mxCell id="FgJaP-sVPUD8eVptEW6E-89" value="&lt;h2&gt;&lt;font style=&quot;font-weight: normal; font-size: 14px;&quot; face=&quot;Courier New&quot;&gt;studio_id&lt;/font&gt;&lt;/h2&gt;" style="text;html=1;strokeColor=none;fillColor=none;align=center;verticalAlign=middle;whiteSpace=wrap;rounded=0;" vertex="1" parent="1">
          <mxGeometry x="708" y="420" width="80" height="30" as="geometry" />
        </mxCell>
        <mxCell id="FgJaP-sVPUD8eVptEW6E-90" value="" style="ellipse;whiteSpace=wrap;html=1;" vertex="1" parent="1">
          <mxGeometry x="529.25" y="475" width="95" height="35" as="geometry" />
        </mxCell>
        <mxCell id="FgJaP-sVPUD8eVptEW6E-91" value="&lt;h2&gt;&lt;font style=&quot;font-weight: normal; font-size: 14px;&quot; face=&quot;Courier New&quot;&gt;hrg_tiket&lt;/font&gt;&lt;/h2&gt;" style="text;html=1;strokeColor=none;fillColor=none;align=center;verticalAlign=middle;whiteSpace=wrap;rounded=0;" vertex="1" parent="1">
          <mxGeometry x="531.75" y="475" width="90" height="30" as="geometry" />
        </mxCell>
        <mxCell id="FgJaP-sVPUD8eVptEW6E-92" value="" style="ellipse;whiteSpace=wrap;html=1;" vertex="1" parent="1">
          <mxGeometry x="761.75" y="570" width="65" height="40" as="geometry" />
        </mxCell>
        <mxCell id="FgJaP-sVPUD8eVptEW6E-93" value="&lt;h2&gt;&lt;font style=&quot;font-weight: normal; font-size: 14px;&quot; face=&quot;Courier New&quot;&gt;desc&lt;/font&gt;&lt;/h2&gt;" style="text;html=1;strokeColor=none;fillColor=none;align=center;verticalAlign=middle;whiteSpace=wrap;rounded=0;" vertex="1" parent="1">
          <mxGeometry x="769.88" y="575" width="48.75" height="30" as="geometry" />
        </mxCell>
        <mxCell id="FgJaP-sVPUD8eVptEW6E-94" value="" style="ellipse;whiteSpace=wrap;html=1;" vertex="1" parent="1">
          <mxGeometry x="578" y="615" width="100" height="50" as="geometry" />
        </mxCell>
        <mxCell id="FgJaP-sVPUD8eVptEW6E-95" value="&lt;h2&gt;&lt;font style=&quot;font-weight: normal; font-size: 14px;&quot; face=&quot;Courier New&quot;&gt;jam_mulai&lt;/font&gt;&lt;/h2&gt;" style="text;html=1;strokeColor=none;fillColor=none;align=center;verticalAlign=middle;whiteSpace=wrap;rounded=0;" vertex="1" parent="1">
          <mxGeometry x="585.5" y="625" width="85" height="30" as="geometry" />
        </mxCell>
        <mxCell id="FgJaP-sVPUD8eVptEW6E-96" value="" style="ellipse;whiteSpace=wrap;html=1;" vertex="1" parent="1">
          <mxGeometry x="694.25" y="615" width="107.5" height="50" as="geometry" />
        </mxCell>
        <mxCell id="FgJaP-sVPUD8eVptEW6E-97" value="&lt;h2&gt;&lt;font style=&quot;font-weight: normal; font-size: 14px;&quot; face=&quot;Courier New&quot;&gt;jam_selesai&lt;/font&gt;&lt;/h2&gt;" style="text;html=1;strokeColor=none;fillColor=none;align=center;verticalAlign=middle;whiteSpace=wrap;rounded=0;" vertex="1" parent="1">
          <mxGeometry x="696.75" y="625" width="103.75" height="30" as="geometry" />
        </mxCell>
        <mxCell id="FgJaP-sVPUD8eVptEW6E-98" value="" style="ellipse;whiteSpace=wrap;html=1;" vertex="1" parent="1">
          <mxGeometry x="521.75" y="560" width="100" height="50" as="geometry" />
        </mxCell>
        <mxCell id="FgJaP-sVPUD8eVptEW6E-99" value="&lt;h2&gt;&lt;font style=&quot;font-weight: normal; font-size: 14px;&quot; face=&quot;Courier New&quot;&gt;tgl_tayang&lt;/font&gt;&lt;/h2&gt;" style="text;html=1;strokeColor=none;fillColor=none;align=center;verticalAlign=middle;whiteSpace=wrap;rounded=0;" vertex="1" parent="1">
          <mxGeometry x="524.88" y="570" width="93.75" height="30" as="geometry" />
        </mxCell>
        <mxCell id="FgJaP-sVPUD8eVptEW6E-100" value="" style="endArrow=none;html=1;rounded=0;entryX=0;entryY=0.5;entryDx=0;entryDy=0;exitX=1;exitY=0.5;exitDx=0;exitDy=0;" edge="1" parent="1" source="FgJaP-sVPUD8eVptEW6E-80" target="FgJaP-sVPUD8eVptEW6E-77">
          <mxGeometry width="50" height="50" relative="1" as="geometry">
            <mxPoint x="403" y="380" as="sourcePoint" />
            <mxPoint x="453" y="330" as="targetPoint" />
          </mxGeometry>
        </mxCell>
        <mxCell id="FgJaP-sVPUD8eVptEW6E-101" value="" style="endArrow=none;html=1;rounded=0;entryX=0.5;entryY=0;entryDx=0;entryDy=0;exitX=0.5;exitY=1;exitDx=0;exitDy=0;" edge="1" parent="1" source="FgJaP-sVPUD8eVptEW6E-84" target="FgJaP-sVPUD8eVptEW6E-77">
          <mxGeometry width="50" height="50" relative="1" as="geometry">
            <mxPoint x="403" y="380" as="sourcePoint" />
            <mxPoint x="653" y="490" as="targetPoint" />
          </mxGeometry>
        </mxCell>
        <mxCell id="FgJaP-sVPUD8eVptEW6E-102" value="" style="endArrow=none;html=1;rounded=0;entryX=0.5;entryY=0;entryDx=0;entryDy=0;exitX=1;exitY=0.5;exitDx=0;exitDy=0;" edge="1" parent="1" source="FgJaP-sVPUD8eVptEW6E-90" target="FgJaP-sVPUD8eVptEW6E-77">
          <mxGeometry width="50" height="50" relative="1" as="geometry">
            <mxPoint x="613" y="520" as="sourcePoint" />
            <mxPoint x="453" y="330" as="targetPoint" />
          </mxGeometry>
        </mxCell>
        <mxCell id="FgJaP-sVPUD8eVptEW6E-103" value="" style="endArrow=none;html=1;rounded=0;exitX=0.5;exitY=0;exitDx=0;exitDy=0;entryX=0.5;entryY=1;entryDx=0;entryDy=0;" edge="1" parent="1" source="FgJaP-sVPUD8eVptEW6E-77" target="FgJaP-sVPUD8eVptEW6E-88">
          <mxGeometry width="50" height="50" relative="1" as="geometry">
            <mxPoint x="403" y="380" as="sourcePoint" />
            <mxPoint x="453" y="330" as="targetPoint" />
          </mxGeometry>
        </mxCell>
        <mxCell id="FgJaP-sVPUD8eVptEW6E-104" value="" style="endArrow=none;html=1;rounded=0;exitX=0.5;exitY=0;exitDx=0;exitDy=0;entryX=0;entryY=0.5;entryDx=0;entryDy=0;" edge="1" parent="1" source="FgJaP-sVPUD8eVptEW6E-77" target="FgJaP-sVPUD8eVptEW6E-86">
          <mxGeometry width="50" height="50" relative="1" as="geometry">
            <mxPoint x="403" y="380" as="sourcePoint" />
            <mxPoint x="453" y="330" as="targetPoint" />
          </mxGeometry>
        </mxCell>
        <mxCell id="FgJaP-sVPUD8eVptEW6E-105" value="" style="endArrow=none;html=1;rounded=0;entryX=0.5;entryY=1;entryDx=0;entryDy=0;exitX=0;exitY=0.5;exitDx=0;exitDy=0;" edge="1" parent="1" source="FgJaP-sVPUD8eVptEW6E-92" target="FgJaP-sVPUD8eVptEW6E-77">
          <mxGeometry width="50" height="50" relative="1" as="geometry">
            <mxPoint x="293" y="480" as="sourcePoint" />
            <mxPoint x="353" y="430" as="targetPoint" />
          </mxGeometry>
        </mxCell>
        <mxCell id="FgJaP-sVPUD8eVptEW6E-106" value="" style="endArrow=none;html=1;rounded=0;entryX=0.5;entryY=1;entryDx=0;entryDy=0;exitX=0.5;exitY=0;exitDx=0;exitDy=0;" edge="1" parent="1" source="FgJaP-sVPUD8eVptEW6E-96" target="FgJaP-sVPUD8eVptEW6E-77">
          <mxGeometry width="50" height="50" relative="1" as="geometry">
            <mxPoint x="303" y="490" as="sourcePoint" />
            <mxPoint x="363" y="440" as="targetPoint" />
          </mxGeometry>
        </mxCell>
        <mxCell id="FgJaP-sVPUD8eVptEW6E-107" value="" style="endArrow=none;html=1;rounded=0;entryX=0.5;entryY=1;entryDx=0;entryDy=0;exitX=0.5;exitY=0;exitDx=0;exitDy=0;" edge="1" parent="1" source="FgJaP-sVPUD8eVptEW6E-94" target="FgJaP-sVPUD8eVptEW6E-77">
          <mxGeometry width="50" height="50" relative="1" as="geometry">
            <mxPoint x="313" y="500" as="sourcePoint" />
            <mxPoint x="373" y="450" as="targetPoint" />
          </mxGeometry>
        </mxCell>
        <mxCell id="FgJaP-sVPUD8eVptEW6E-108" value="" style="endArrow=none;html=1;rounded=0;entryX=0.5;entryY=1;entryDx=0;entryDy=0;exitX=1;exitY=0.5;exitDx=0;exitDy=0;" edge="1" parent="1" source="FgJaP-sVPUD8eVptEW6E-98" target="FgJaP-sVPUD8eVptEW6E-77">
          <mxGeometry width="50" height="50" relative="1" as="geometry">
            <mxPoint x="323" y="510" as="sourcePoint" />
            <mxPoint x="383" y="460" as="targetPoint" />
          </mxGeometry>
        </mxCell>
        <mxCell id="FgJaP-sVPUD8eVptEW6E-109" value="" style="rounded=0;whiteSpace=wrap;html=1;" vertex="1" parent="1">
          <mxGeometry x="319.25" y="520" width="80" height="40" as="geometry" />
        </mxCell>
        <mxCell id="FgJaP-sVPUD8eVptEW6E-110" value="&lt;h2&gt;&lt;font style=&quot;font-size: 18px; font-weight: normal;&quot; face=&quot;Courier New&quot;&gt;Studio&lt;/font&gt;&lt;/h2&gt;" style="text;html=1;strokeColor=none;fillColor=none;align=center;verticalAlign=middle;whiteSpace=wrap;rounded=0;" vertex="1" parent="1">
          <mxGeometry x="321.75" y="525" width="75" height="30" as="geometry" />
        </mxCell>
        <mxCell id="FgJaP-sVPUD8eVptEW6E-111" value="" style="endArrow=none;html=1;rounded=0;exitX=1;exitY=0.5;exitDx=0;exitDy=0;entryX=0;entryY=0.5;entryDx=0;entryDy=0;" edge="1" parent="1" source="FgJaP-sVPUD8eVptEW6E-109" target="FgJaP-sVPUD8eVptEW6E-80">
          <mxGeometry width="50" height="50" relative="1" as="geometry">
            <mxPoint x="419.25" y="360" as="sourcePoint" />
            <mxPoint x="469.25" y="310" as="targetPoint" />
          </mxGeometry>
        </mxCell>
        <mxCell id="FgJaP-sVPUD8eVptEW6E-112" value="" style="ellipse;whiteSpace=wrap;html=1;" vertex="1" parent="1">
          <mxGeometry x="399.25" y="455" width="80" height="45" as="geometry" />
        </mxCell>
        <mxCell id="FgJaP-sVPUD8eVptEW6E-113" value="&lt;h2&gt;&lt;font style=&quot;font-weight: normal; font-size: 14px;&quot; face=&quot;Courier New&quot;&gt;qty_seat&lt;/font&gt;&lt;/h2&gt;" style="text;html=1;strokeColor=none;fillColor=none;align=center;verticalAlign=middle;whiteSpace=wrap;rounded=0;" vertex="1" parent="1">
          <mxGeometry x="394.25" y="460" width="90" height="30" as="geometry" />
        </mxCell>
        <mxCell id="FgJaP-sVPUD8eVptEW6E-114" value="" style="ellipse;whiteSpace=wrap;html=1;" vertex="1" parent="1">
          <mxGeometry x="246.75" y="490" width="65" height="40" as="geometry" />
        </mxCell>
        <mxCell id="FgJaP-sVPUD8eVptEW6E-115" value="&lt;h2&gt;&lt;font style=&quot;font-weight: normal; font-size: 14px;&quot; face=&quot;Courier New&quot;&gt;kode&lt;/font&gt;&lt;/h2&gt;" style="text;html=1;strokeColor=none;fillColor=none;align=center;verticalAlign=middle;whiteSpace=wrap;rounded=0;" vertex="1" parent="1">
          <mxGeometry x="246.75" y="495" width="60" height="30" as="geometry" />
        </mxCell>
        <mxCell id="FgJaP-sVPUD8eVptEW6E-116" value="" style="ellipse;whiteSpace=wrap;html=1;" vertex="1" parent="1">
          <mxGeometry x="246.75" y="440" width="65" height="40" as="geometry" />
        </mxCell>
        <mxCell id="FgJaP-sVPUD8eVptEW6E-117" value="&lt;h2&gt;&lt;font style=&quot;font-weight: normal; font-size: 14px;&quot; face=&quot;Courier New&quot;&gt;nama&lt;/font&gt;&lt;/h2&gt;" style="text;html=1;strokeColor=none;fillColor=none;align=center;verticalAlign=middle;whiteSpace=wrap;rounded=0;" vertex="1" parent="1">
          <mxGeometry x="246.75" y="445" width="65" height="30" as="geometry" />
        </mxCell>
        <mxCell id="FgJaP-sVPUD8eVptEW6E-121" value="" style="ellipse;whiteSpace=wrap;html=1;" vertex="1" parent="1">
          <mxGeometry x="314.25" y="420" width="92.5" height="40" as="geometry" />
        </mxCell>
        <mxCell id="FgJaP-sVPUD8eVptEW6E-122" value="&lt;h2&gt;&lt;font style=&quot;font-weight: normal; font-size: 14px;&quot; face=&quot;Courier New&quot;&gt;studio_id&lt;/font&gt;&lt;/h2&gt;" style="text;html=1;strokeColor=none;fillColor=none;align=center;verticalAlign=middle;whiteSpace=wrap;rounded=0;" vertex="1" parent="1">
          <mxGeometry x="314.25" y="425" width="90" height="30" as="geometry" />
        </mxCell>
        <mxCell id="FgJaP-sVPUD8eVptEW6E-124" value="" style="endArrow=none;html=1;rounded=0;entryX=0.5;entryY=0;entryDx=0;entryDy=0;exitX=0.5;exitY=1;exitDx=0;exitDy=0;" edge="1" parent="1" source="FgJaP-sVPUD8eVptEW6E-121" target="FgJaP-sVPUD8eVptEW6E-109">
          <mxGeometry width="50" height="50" relative="1" as="geometry">
            <mxPoint x="419.25" y="410" as="sourcePoint" />
            <mxPoint x="469.25" y="360" as="targetPoint" />
          </mxGeometry>
        </mxCell>
        <mxCell id="FgJaP-sVPUD8eVptEW6E-125" value="" style="endArrow=none;html=1;rounded=0;exitX=0.5;exitY=0;exitDx=0;exitDy=0;entryX=0;entryY=0.5;entryDx=0;entryDy=0;" edge="1" parent="1" source="FgJaP-sVPUD8eVptEW6E-109" target="FgJaP-sVPUD8eVptEW6E-112">
          <mxGeometry width="50" height="50" relative="1" as="geometry">
            <mxPoint x="419.25" y="410" as="sourcePoint" />
            <mxPoint x="469.25" y="360" as="targetPoint" />
          </mxGeometry>
        </mxCell>
        <mxCell id="FgJaP-sVPUD8eVptEW6E-126" value="" style="endArrow=none;html=1;rounded=0;entryX=1;entryY=0.5;entryDx=0;entryDy=0;exitX=0.5;exitY=0;exitDx=0;exitDy=0;" edge="1" parent="1" source="FgJaP-sVPUD8eVptEW6E-109" target="FgJaP-sVPUD8eVptEW6E-116">
          <mxGeometry width="50" height="50" relative="1" as="geometry">
            <mxPoint x="419.25" y="410" as="sourcePoint" />
            <mxPoint x="469.25" y="360" as="targetPoint" />
          </mxGeometry>
        </mxCell>
        <mxCell id="FgJaP-sVPUD8eVptEW6E-127" value="" style="endArrow=none;html=1;rounded=0;entryX=1;entryY=0.5;entryDx=0;entryDy=0;exitX=0.5;exitY=0;exitDx=0;exitDy=0;" edge="1" parent="1" source="FgJaP-sVPUD8eVptEW6E-109" target="FgJaP-sVPUD8eVptEW6E-114">
          <mxGeometry width="50" height="50" relative="1" as="geometry">
            <mxPoint x="419.25" y="410" as="sourcePoint" />
            <mxPoint x="469.25" y="360" as="targetPoint" />
          </mxGeometry>
        </mxCell>
        <mxCell id="FgJaP-sVPUD8eVptEW6E-130" value="" style="rhombus;whiteSpace=wrap;html=1;" vertex="1" parent="1">
          <mxGeometry x="163" y="500" width="83.75" height="80" as="geometry" />
        </mxCell>
        <mxCell id="FgJaP-sVPUD8eVptEW6E-131" value="&lt;h2&gt;&lt;font style=&quot;font-weight: normal; font-size: 14px;&quot; face=&quot;Courier New&quot;&gt;Has&lt;/font&gt;&lt;/h2&gt;" style="text;html=1;strokeColor=none;fillColor=none;align=center;verticalAlign=middle;whiteSpace=wrap;rounded=0;" vertex="1" parent="1">
          <mxGeometry x="180.5" y="525" width="48.75" height="30" as="geometry" />
        </mxCell>
        <mxCell id="FgJaP-sVPUD8eVptEW6E-132" value="" style="endArrow=none;html=1;rounded=0;entryX=1;entryY=0.5;entryDx=0;entryDy=0;exitX=0;exitY=0.5;exitDx=0;exitDy=0;" edge="1" parent="1" source="FgJaP-sVPUD8eVptEW6E-109" target="FgJaP-sVPUD8eVptEW6E-130">
          <mxGeometry width="50" height="50" relative="1" as="geometry">
            <mxPoint x="419.25" y="410" as="sourcePoint" />
            <mxPoint x="469.25" y="360" as="targetPoint" />
          </mxGeometry>
        </mxCell>
        <mxCell id="FgJaP-sVPUD8eVptEW6E-133" value="" style="rounded=0;whiteSpace=wrap;html=1;" vertex="1" parent="1">
          <mxGeometry x="43" y="520" width="80" height="40" as="geometry" />
        </mxCell>
        <mxCell id="FgJaP-sVPUD8eVptEW6E-134" value="&lt;h2&gt;&lt;font style=&quot;font-size: 18px; font-weight: normal;&quot; face=&quot;Courier New&quot;&gt;Seats&lt;/font&gt;&lt;/h2&gt;" style="text;html=1;strokeColor=none;fillColor=none;align=center;verticalAlign=middle;whiteSpace=wrap;rounded=0;" vertex="1" parent="1">
          <mxGeometry x="46.75" y="525" width="75" height="30" as="geometry" />
        </mxCell>
        <mxCell id="FgJaP-sVPUD8eVptEW6E-135" value="" style="endArrow=none;html=1;rounded=0;entryX=0;entryY=0.5;entryDx=0;entryDy=0;exitX=1;exitY=0.5;exitDx=0;exitDy=0;" edge="1" parent="1" source="FgJaP-sVPUD8eVptEW6E-133" target="FgJaP-sVPUD8eVptEW6E-130">
          <mxGeometry width="50" height="50" relative="1" as="geometry">
            <mxPoint x="403" y="390" as="sourcePoint" />
            <mxPoint x="453" y="340" as="targetPoint" />
          </mxGeometry>
        </mxCell>
        <mxCell id="FgJaP-sVPUD8eVptEW6E-136" value="" style="ellipse;whiteSpace=wrap;html=1;" vertex="1" parent="1">
          <mxGeometry x="103" y="450" width="92.5" height="40" as="geometry" />
        </mxCell>
        <mxCell id="FgJaP-sVPUD8eVptEW6E-137" value="&lt;h2&gt;&lt;font style=&quot;font-weight: normal; font-size: 14px;&quot; face=&quot;Courier New&quot;&gt;studio_id&lt;/font&gt;&lt;/h2&gt;" style="text;html=1;strokeColor=none;fillColor=none;align=center;verticalAlign=middle;whiteSpace=wrap;rounded=0;" vertex="1" parent="1">
          <mxGeometry x="104.25" y="455" width="90" height="30" as="geometry" />
        </mxCell>
        <mxCell id="FgJaP-sVPUD8eVptEW6E-138" value="" style="ellipse;whiteSpace=wrap;html=1;" vertex="1" parent="1">
          <mxGeometry x="36.75" y="410" width="92.5" height="40" as="geometry" />
        </mxCell>
        <mxCell id="FgJaP-sVPUD8eVptEW6E-139" value="&lt;h2&gt;&lt;font style=&quot;font-weight: normal; font-size: 14px;&quot; face=&quot;Courier New&quot;&gt;no_kursi&lt;/font&gt;&lt;/h2&gt;" style="text;html=1;strokeColor=none;fillColor=none;align=center;verticalAlign=middle;whiteSpace=wrap;rounded=0;" vertex="1" parent="1">
          <mxGeometry x="39.25" y="415" width="90" height="30" as="geometry" />
        </mxCell>
        <mxCell id="FgJaP-sVPUD8eVptEW6E-140" value="" style="endArrow=none;html=1;rounded=0;entryX=0.5;entryY=1;entryDx=0;entryDy=0;exitX=0.5;exitY=0;exitDx=0;exitDy=0;" edge="1" parent="1" source="FgJaP-sVPUD8eVptEW6E-133" target="FgJaP-sVPUD8eVptEW6E-138">
          <mxGeometry width="50" height="50" relative="1" as="geometry">
            <mxPoint x="123" y="650" as="sourcePoint" />
            <mxPoint x="173" y="600" as="targetPoint" />
          </mxGeometry>
        </mxCell>
        <mxCell id="FgJaP-sVPUD8eVptEW6E-141" value="" style="endArrow=none;html=1;rounded=0;entryX=0.5;entryY=1;entryDx=0;entryDy=0;exitX=0.5;exitY=0;exitDx=0;exitDy=0;" edge="1" parent="1" source="FgJaP-sVPUD8eVptEW6E-133" target="FgJaP-sVPUD8eVptEW6E-136">
          <mxGeometry width="50" height="50" relative="1" as="geometry">
            <mxPoint x="83" y="700" as="sourcePoint" />
            <mxPoint x="133" y="650" as="targetPoint" />
          </mxGeometry>
        </mxCell>
        <mxCell id="FgJaP-sVPUD8eVptEW6E-142" value="" style="endArrow=none;html=1;rounded=0;exitX=0.5;exitY=0;exitDx=0;exitDy=0;entryX=0.5;entryY=1;entryDx=0;entryDy=0;" edge="1" parent="1" source="FgJaP-sVPUD8eVptEW6E-15" target="FgJaP-sVPUD8eVptEW6E-1">
          <mxGeometry width="50" height="50" relative="1" as="geometry">
            <mxPoint x="63" y="390" as="sourcePoint" />
            <mxPoint x="113" y="340" as="targetPoint" />
          </mxGeometry>
        </mxCell>
        <mxCell id="FgJaP-sVPUD8eVptEW6E-168" value="" style="rounded=0;whiteSpace=wrap;html=1;" vertex="1" parent="1">
          <mxGeometry x="223" y="732.5" width="80" height="40" as="geometry" />
        </mxCell>
        <mxCell id="FgJaP-sVPUD8eVptEW6E-169" value="&lt;h2&gt;&lt;font face=&quot;Courier New&quot;&gt;&lt;span style=&quot;font-weight: 400;&quot;&gt;Order&lt;/span&gt;&lt;/font&gt;&lt;/h2&gt;" style="text;html=1;strokeColor=none;fillColor=none;align=center;verticalAlign=middle;whiteSpace=wrap;rounded=0;" vertex="1" parent="1">
          <mxGeometry x="228" y="737.5" width="65" height="30" as="geometry" />
        </mxCell>
        <mxCell id="FgJaP-sVPUD8eVptEW6E-170" value="" style="ellipse;whiteSpace=wrap;html=1;" vertex="1" parent="1">
          <mxGeometry x="174.25" y="592.5" width="80" height="50" as="geometry" />
        </mxCell>
        <mxCell id="FgJaP-sVPUD8eVptEW6E-171" value="&lt;h2&gt;&lt;font style=&quot;font-weight: normal; font-size: 14px;&quot; face=&quot;Courier New&quot;&gt;order_id&lt;/font&gt;&lt;/h2&gt;" style="text;html=1;strokeColor=none;fillColor=none;align=center;verticalAlign=middle;whiteSpace=wrap;rounded=0;" vertex="1" parent="1">
          <mxGeometry x="176.75" y="602.5" width="75" height="30" as="geometry" />
        </mxCell>
        <mxCell id="FgJaP-sVPUD8eVptEW6E-172" value="" style="ellipse;whiteSpace=wrap;html=1;" vertex="1" parent="1">
          <mxGeometry x="271.75" y="592.5" width="80" height="50" as="geometry" />
        </mxCell>
        <mxCell id="FgJaP-sVPUD8eVptEW6E-173" value="&lt;h2&gt;&lt;font style=&quot;font-weight: normal; font-size: 14px;&quot; face=&quot;Courier New&quot;&gt;user_id&lt;/font&gt;&lt;/h2&gt;" style="text;html=1;strokeColor=none;fillColor=none;align=center;verticalAlign=middle;whiteSpace=wrap;rounded=0;" vertex="1" parent="1">
          <mxGeometry x="276.75" y="602.5" width="75" height="30" as="geometry" />
        </mxCell>
        <mxCell id="FgJaP-sVPUD8eVptEW6E-174" value="" style="ellipse;whiteSpace=wrap;html=1;" vertex="1" parent="1">
          <mxGeometry x="126.12" y="662.5" width="105" height="50" as="geometry" />
        </mxCell>
        <mxCell id="FgJaP-sVPUD8eVptEW6E-175" value="&lt;h2&gt;&lt;font style=&quot;font-weight: normal; font-size: 14px;&quot; face=&quot;Courier New&quot;&gt;schedule_id&lt;/font&gt;&lt;/h2&gt;" style="text;html=1;strokeColor=none;fillColor=none;align=center;verticalAlign=middle;whiteSpace=wrap;rounded=0;" vertex="1" parent="1">
          <mxGeometry x="126.75" y="672.5" width="102.5" height="30" as="geometry" />
        </mxCell>
        <mxCell id="FgJaP-sVPUD8eVptEW6E-176" value="" style="ellipse;whiteSpace=wrap;html=1;" vertex="1" parent="1">
          <mxGeometry x="295.5" y="672.5" width="92.5" height="40" as="geometry" />
        </mxCell>
        <mxCell id="FgJaP-sVPUD8eVptEW6E-177" value="&lt;h2&gt;&lt;font style=&quot;font-weight: normal; font-size: 14px;&quot; face=&quot;Courier New&quot;&gt;no_kursi&lt;/font&gt;&lt;/h2&gt;" style="text;html=1;strokeColor=none;fillColor=none;align=center;verticalAlign=middle;whiteSpace=wrap;rounded=0;" vertex="1" parent="1">
          <mxGeometry x="296.75" y="677.5" width="90" height="30" as="geometry" />
        </mxCell>
        <mxCell id="FgJaP-sVPUD8eVptEW6E-178" value="" style="ellipse;whiteSpace=wrap;html=1;" vertex="1" parent="1">
          <mxGeometry x="211.75" y="832.5" width="95" height="35" as="geometry" />
        </mxCell>
        <mxCell id="FgJaP-sVPUD8eVptEW6E-179" value="&lt;h2&gt;&lt;font style=&quot;font-weight: normal; font-size: 14px;&quot; face=&quot;Courier New&quot;&gt;jml_tiket&lt;/font&gt;&lt;/h2&gt;" style="text;html=1;strokeColor=none;fillColor=none;align=center;verticalAlign=middle;whiteSpace=wrap;rounded=0;" vertex="1" parent="1">
          <mxGeometry x="214.25" y="832.5" width="90" height="30" as="geometry" />
        </mxCell>
        <mxCell id="FgJaP-sVPUD8eVptEW6E-180" value="" style="ellipse;whiteSpace=wrap;html=1;" vertex="1" parent="1">
          <mxGeometry x="275.5" y="792.5" width="95" height="35" as="geometry" />
        </mxCell>
        <mxCell id="FgJaP-sVPUD8eVptEW6E-181" value="&lt;h2&gt;&lt;font style=&quot;font-weight: normal; font-size: 14px;&quot; face=&quot;Courier New&quot;&gt;total_hrg&lt;/font&gt;&lt;/h2&gt;" style="text;html=1;strokeColor=none;fillColor=none;align=center;verticalAlign=middle;whiteSpace=wrap;rounded=0;" vertex="1" parent="1">
          <mxGeometry x="278" y="792.5" width="90" height="30" as="geometry" />
        </mxCell>
        <mxCell id="FgJaP-sVPUD8eVptEW6E-182" value="" style="ellipse;whiteSpace=wrap;html=1;" vertex="1" parent="1">
          <mxGeometry x="146.75" y="792.5" width="95" height="35" as="geometry" />
        </mxCell>
        <mxCell id="FgJaP-sVPUD8eVptEW6E-183" value="&lt;h2&gt;&lt;font style=&quot;font-weight: normal; font-size: 14px;&quot; face=&quot;Courier New&quot;&gt;order_date&lt;/font&gt;&lt;/h2&gt;" style="text;html=1;strokeColor=none;fillColor=none;align=center;verticalAlign=middle;whiteSpace=wrap;rounded=0;" vertex="1" parent="1">
          <mxGeometry x="149.25" y="792.5" width="90" height="30" as="geometry" />
        </mxCell>
        <mxCell id="FgJaP-sVPUD8eVptEW6E-184" value="" style="endArrow=none;html=1;rounded=0;entryX=0.5;entryY=1;entryDx=0;entryDy=0;exitX=0.5;exitY=0;exitDx=0;exitDy=0;" edge="1" parent="1" source="FgJaP-sVPUD8eVptEW6E-168" target="FgJaP-sVPUD8eVptEW6E-170">
          <mxGeometry width="50" height="50" relative="1" as="geometry">
            <mxPoint x="451.75" y="722.5" as="sourcePoint" />
            <mxPoint x="501.75" y="672.5" as="targetPoint" />
          </mxGeometry>
        </mxCell>
        <mxCell id="FgJaP-sVPUD8eVptEW6E-185" value="" style="endArrow=none;html=1;rounded=0;exitX=0.5;exitY=0;exitDx=0;exitDy=0;entryX=0.5;entryY=1;entryDx=0;entryDy=0;" edge="1" parent="1" source="FgJaP-sVPUD8eVptEW6E-168" target="FgJaP-sVPUD8eVptEW6E-172">
          <mxGeometry width="50" height="50" relative="1" as="geometry">
            <mxPoint x="381.75" y="772.5" as="sourcePoint" />
            <mxPoint x="431.75" y="722.5" as="targetPoint" />
          </mxGeometry>
        </mxCell>
        <mxCell id="FgJaP-sVPUD8eVptEW6E-186" value="" style="endArrow=none;html=1;rounded=0;exitX=1;exitY=1;exitDx=0;exitDy=0;entryX=0.5;entryY=0;entryDx=0;entryDy=0;" edge="1" parent="1" source="FgJaP-sVPUD8eVptEW6E-174" target="FgJaP-sVPUD8eVptEW6E-168">
          <mxGeometry width="50" height="50" relative="1" as="geometry">
            <mxPoint x="351.75" y="772.5" as="sourcePoint" />
            <mxPoint x="401.75" y="722.5" as="targetPoint" />
          </mxGeometry>
        </mxCell>
        <mxCell id="FgJaP-sVPUD8eVptEW6E-187" value="" style="endArrow=none;html=1;rounded=0;entryX=0.5;entryY=1;entryDx=0;entryDy=0;exitX=0.5;exitY=0;exitDx=0;exitDy=0;" edge="1" parent="1" source="FgJaP-sVPUD8eVptEW6E-182" target="FgJaP-sVPUD8eVptEW6E-168">
          <mxGeometry width="50" height="50" relative="1" as="geometry">
            <mxPoint x="121.75" y="902.5" as="sourcePoint" />
            <mxPoint x="171.75" y="852.5" as="targetPoint" />
          </mxGeometry>
        </mxCell>
        <mxCell id="FgJaP-sVPUD8eVptEW6E-188" value="" style="endArrow=none;html=1;rounded=0;entryX=0.5;entryY=1;entryDx=0;entryDy=0;exitX=0.5;exitY=0;exitDx=0;exitDy=0;" edge="1" parent="1" source="FgJaP-sVPUD8eVptEW6E-180" target="FgJaP-sVPUD8eVptEW6E-168">
          <mxGeometry width="50" height="50" relative="1" as="geometry">
            <mxPoint x="381.75" y="922.5" as="sourcePoint" />
            <mxPoint x="431.75" y="872.5" as="targetPoint" />
          </mxGeometry>
        </mxCell>
        <mxCell id="FgJaP-sVPUD8eVptEW6E-189" value="" style="endArrow=none;html=1;rounded=0;entryX=0.5;entryY=1;entryDx=0;entryDy=0;exitX=0.5;exitY=0;exitDx=0;exitDy=0;" edge="1" parent="1" source="FgJaP-sVPUD8eVptEW6E-178" target="FgJaP-sVPUD8eVptEW6E-168">
          <mxGeometry width="50" height="50" relative="1" as="geometry">
            <mxPoint x="121.75" y="922.5" as="sourcePoint" />
            <mxPoint x="171.75" y="872.5" as="targetPoint" />
          </mxGeometry>
        </mxCell>
        <mxCell id="FgJaP-sVPUD8eVptEW6E-190" value="" style="rhombus;whiteSpace=wrap;html=1;" vertex="1" parent="1">
          <mxGeometry x="80.5" y="712.5" width="80" height="80" as="geometry" />
        </mxCell>
        <mxCell id="FgJaP-sVPUD8eVptEW6E-191" value="" style="endArrow=none;html=1;rounded=0;entryX=0;entryY=0.5;entryDx=0;entryDy=0;exitX=0;exitY=0.5;exitDx=0;exitDy=0;" edge="1" parent="1" source="FgJaP-sVPUD8eVptEW6E-190" target="FgJaP-sVPUD8eVptEW6E-1">
          <mxGeometry width="50" height="50" relative="1" as="geometry">
            <mxPoint x="103" y="650" as="sourcePoint" />
            <mxPoint x="153" y="600" as="targetPoint" />
            <Array as="points">
              <mxPoint x="23" y="753" />
              <mxPoint x="23" y="360" />
            </Array>
          </mxGeometry>
        </mxCell>
        <mxCell id="FgJaP-sVPUD8eVptEW6E-192" value="&lt;h2&gt;&lt;font style=&quot;font-weight: normal; font-size: 14px;&quot; face=&quot;Courier New&quot;&gt;Doing&lt;/font&gt;&lt;/h2&gt;" style="text;html=1;strokeColor=none;fillColor=none;align=center;verticalAlign=middle;whiteSpace=wrap;rounded=0;" vertex="1" parent="1">
          <mxGeometry x="96.13" y="737.5" width="48.75" height="30" as="geometry" />
        </mxCell>
        <mxCell id="FgJaP-sVPUD8eVptEW6E-193" value="" style="endArrow=none;html=1;rounded=0;exitX=0;exitY=0.5;exitDx=0;exitDy=0;entryX=1;entryY=0.5;entryDx=0;entryDy=0;" edge="1" parent="1" source="FgJaP-sVPUD8eVptEW6E-168" target="FgJaP-sVPUD8eVptEW6E-190">
          <mxGeometry width="50" height="50" relative="1" as="geometry">
            <mxPoint x="21.75" y="910" as="sourcePoint" />
            <mxPoint x="173" y="753" as="targetPoint" />
          </mxGeometry>
        </mxCell>
        <mxCell id="FgJaP-sVPUD8eVptEW6E-194" value="" style="endArrow=none;html=1;rounded=0;entryX=0;entryY=1;entryDx=0;entryDy=0;exitX=0.5;exitY=0;exitDx=0;exitDy=0;" edge="1" parent="1" source="FgJaP-sVPUD8eVptEW6E-168" target="FgJaP-sVPUD8eVptEW6E-176">
          <mxGeometry width="50" height="50" relative="1" as="geometry">
            <mxPoint x="493" y="810" as="sourcePoint" />
            <mxPoint x="543" y="760" as="targetPoint" />
          </mxGeometry>
        </mxCell>
        <mxCell id="FgJaP-sVPUD8eVptEW6E-195" value="" style="rhombus;whiteSpace=wrap;html=1;" vertex="1" parent="1">
          <mxGeometry x="360.5" y="712.5" width="83.75" height="80" as="geometry" />
        </mxCell>
        <mxCell id="FgJaP-sVPUD8eVptEW6E-196" value="&lt;h2&gt;&lt;font style=&quot;font-weight: normal; font-size: 14px;&quot; face=&quot;Courier New&quot;&gt;Has&lt;/font&gt;&lt;/h2&gt;" style="text;html=1;strokeColor=none;fillColor=none;align=center;verticalAlign=middle;whiteSpace=wrap;rounded=0;" vertex="1" parent="1">
          <mxGeometry x="378" y="737.5" width="48.75" height="30" as="geometry" />
        </mxCell>
        <mxCell id="FgJaP-sVPUD8eVptEW6E-197" value="" style="rounded=0;whiteSpace=wrap;html=1;" vertex="1" parent="1">
          <mxGeometry x="483" y="732.5" width="80" height="40" as="geometry" />
        </mxCell>
        <mxCell id="FgJaP-sVPUD8eVptEW6E-198" value="&lt;h2&gt;&lt;font face=&quot;Courier New&quot;&gt;&lt;span style=&quot;font-weight: 400;&quot;&gt;Payment&lt;/span&gt;&lt;/font&gt;&lt;/h2&gt;" style="text;html=1;strokeColor=none;fillColor=none;align=center;verticalAlign=middle;whiteSpace=wrap;rounded=0;" vertex="1" parent="1">
          <mxGeometry x="490.5" y="737.5" width="65" height="30" as="geometry" />
        </mxCell>
        <mxCell id="FgJaP-sVPUD8eVptEW6E-199" value="" style="endArrow=none;html=1;rounded=0;entryX=1;entryY=0.5;entryDx=0;entryDy=0;exitX=0;exitY=0.5;exitDx=0;exitDy=0;" edge="1" parent="1" source="FgJaP-sVPUD8eVptEW6E-195" target="FgJaP-sVPUD8eVptEW6E-168">
          <mxGeometry width="50" height="50" relative="1" as="geometry">
            <mxPoint x="393" y="870" as="sourcePoint" />
            <mxPoint x="443" y="820" as="targetPoint" />
          </mxGeometry>
        </mxCell>
        <mxCell id="FgJaP-sVPUD8eVptEW6E-200" value="" style="endArrow=none;html=1;rounded=0;entryX=1;entryY=0.5;entryDx=0;entryDy=0;exitX=0;exitY=0.5;exitDx=0;exitDy=0;" edge="1" parent="1" source="FgJaP-sVPUD8eVptEW6E-197" target="FgJaP-sVPUD8eVptEW6E-195">
          <mxGeometry width="50" height="50" relative="1" as="geometry">
            <mxPoint x="433" y="870" as="sourcePoint" />
            <mxPoint x="483" y="820" as="targetPoint" />
          </mxGeometry>
        </mxCell>
        <mxCell id="FgJaP-sVPUD8eVptEW6E-201" value="" style="ellipse;whiteSpace=wrap;html=1;" vertex="1" parent="1">
          <mxGeometry x="484.25" y="622.5" width="80" height="50" as="geometry" />
        </mxCell>
        <mxCell id="FgJaP-sVPUD8eVptEW6E-202" value="&lt;h2&gt;&lt;font style=&quot;font-weight: normal; font-size: 14px;&quot; face=&quot;Courier New&quot;&gt;order_id&lt;/font&gt;&lt;/h2&gt;" style="text;html=1;strokeColor=none;fillColor=none;align=center;verticalAlign=middle;whiteSpace=wrap;rounded=0;" vertex="1" parent="1">
          <mxGeometry x="486.75" y="632.5" width="75" height="30" as="geometry" />
        </mxCell>
        <mxCell id="FgJaP-sVPUD8eVptEW6E-203" value="" style="ellipse;whiteSpace=wrap;html=1;" vertex="1" parent="1">
          <mxGeometry x="403.62" y="670" width="105" height="50" as="geometry" />
        </mxCell>
        <mxCell id="FgJaP-sVPUD8eVptEW6E-204" value="&lt;h2&gt;&lt;font style=&quot;font-weight: normal; font-size: 14px;&quot; face=&quot;Courier New&quot;&gt;payment_id&lt;/font&gt;&lt;/h2&gt;" style="text;html=1;strokeColor=none;fillColor=none;align=center;verticalAlign=middle;whiteSpace=wrap;rounded=0;" vertex="1" parent="1">
          <mxGeometry x="406.75" y="677.5" width="98.75" height="30" as="geometry" />
        </mxCell>
        <mxCell id="FgJaP-sVPUD8eVptEW6E-205" value="" style="ellipse;whiteSpace=wrap;html=1;" vertex="1" parent="1">
          <mxGeometry x="533" y="672.5" width="117" height="50" as="geometry" />
        </mxCell>
        <mxCell id="FgJaP-sVPUD8eVptEW6E-206" value="&lt;h2&gt;&lt;font style=&quot;font-weight: normal; font-size: 14px;&quot; face=&quot;Courier New&quot;&gt;payment_date&lt;/font&gt;&lt;/h2&gt;" style="text;html=1;strokeColor=none;fillColor=none;align=center;verticalAlign=middle;whiteSpace=wrap;rounded=0;" vertex="1" parent="1">
          <mxGeometry x="542.13" y="677.5" width="98.75" height="30" as="geometry" />
        </mxCell>
        <mxCell id="FgJaP-sVPUD8eVptEW6E-207" value="" style="ellipse;whiteSpace=wrap;html=1;" vertex="1" parent="1">
          <mxGeometry x="463" y="832.5" width="124.5" height="42.5" as="geometry" />
        </mxCell>
        <mxCell id="FgJaP-sVPUD8eVptEW6E-208" value="&lt;h2&gt;&lt;font style=&quot;font-weight: normal; font-size: 14px;&quot; face=&quot;Courier New&quot;&gt;total_payment&lt;/font&gt;&lt;/h2&gt;" style="text;html=1;strokeColor=none;fillColor=none;align=center;verticalAlign=middle;whiteSpace=wrap;rounded=0;" vertex="1" parent="1">
          <mxGeometry x="480.5" y="837.5" width="90" height="30" as="geometry" />
        </mxCell>
        <mxCell id="FgJaP-sVPUD8eVptEW6E-209" value="" style="ellipse;whiteSpace=wrap;html=1;" vertex="1" parent="1">
          <mxGeometry x="428" y="792.5" width="69.5" height="35" as="geometry" />
        </mxCell>
        <mxCell id="FgJaP-sVPUD8eVptEW6E-210" value="&lt;h2&gt;&lt;font style=&quot;font-weight: normal; font-size: 14px;&quot; face=&quot;Courier New&quot;&gt;status&lt;/font&gt;&lt;/h2&gt;" style="text;html=1;strokeColor=none;fillColor=none;align=center;verticalAlign=middle;whiteSpace=wrap;rounded=0;" vertex="1" parent="1">
          <mxGeometry x="429.25" y="792.5" width="67" height="30" as="geometry" />
        </mxCell>
        <mxCell id="FgJaP-sVPUD8eVptEW6E-211" value="" style="ellipse;whiteSpace=wrap;html=1;" vertex="1" parent="1">
          <mxGeometry x="558" y="788.75" width="142" height="42.5" as="geometry" />
        </mxCell>
        <mxCell id="FgJaP-sVPUD8eVptEW6E-212" value="&lt;h2&gt;&lt;font style=&quot;font-weight: normal; font-size: 14px;&quot; face=&quot;Courier New&quot;&gt;payment_method&lt;/font&gt;&lt;/h2&gt;" style="text;html=1;strokeColor=none;fillColor=none;align=center;verticalAlign=middle;whiteSpace=wrap;rounded=0;" vertex="1" parent="1">
          <mxGeometry x="585.5" y="795" width="90" height="30" as="geometry" />
        </mxCell>
        <mxCell id="FgJaP-sVPUD8eVptEW6E-214" value="" style="endArrow=none;html=1;rounded=0;entryX=0.5;entryY=0;entryDx=0;entryDy=0;exitX=0.5;exitY=1;exitDx=0;exitDy=0;" edge="1" parent="1" source="FgJaP-sVPUD8eVptEW6E-197" target="FgJaP-sVPUD8eVptEW6E-207">
          <mxGeometry width="50" height="50" relative="1" as="geometry">
            <mxPoint x="340" y="990" as="sourcePoint" />
            <mxPoint x="390" y="940" as="targetPoint" />
            <Array as="points" />
          </mxGeometry>
        </mxCell>
        <mxCell id="FgJaP-sVPUD8eVptEW6E-215" value="" style="endArrow=none;html=1;rounded=0;entryX=0.5;entryY=1;entryDx=0;entryDy=0;exitX=0.5;exitY=0;exitDx=0;exitDy=0;" edge="1" parent="1" source="FgJaP-sVPUD8eVptEW6E-209" target="FgJaP-sVPUD8eVptEW6E-197">
          <mxGeometry width="50" height="50" relative="1" as="geometry">
            <mxPoint x="320" y="920" as="sourcePoint" />
            <mxPoint x="370" y="870" as="targetPoint" />
          </mxGeometry>
        </mxCell>
        <mxCell id="FgJaP-sVPUD8eVptEW6E-216" value="" style="endArrow=none;html=1;rounded=0;entryX=0.5;entryY=1;entryDx=0;entryDy=0;exitX=0.5;exitY=0;exitDx=0;exitDy=0;" edge="1" parent="1" source="FgJaP-sVPUD8eVptEW6E-211" target="FgJaP-sVPUD8eVptEW6E-197">
          <mxGeometry width="50" height="50" relative="1" as="geometry">
            <mxPoint x="430" y="950" as="sourcePoint" />
            <mxPoint x="480" y="900" as="targetPoint" />
          </mxGeometry>
        </mxCell>
        <mxCell id="FgJaP-sVPUD8eVptEW6E-217" value="" style="endArrow=none;html=1;rounded=0;entryX=1;entryY=1;entryDx=0;entryDy=0;exitX=0.5;exitY=0;exitDx=0;exitDy=0;" edge="1" parent="1" source="FgJaP-sVPUD8eVptEW6E-197" target="FgJaP-sVPUD8eVptEW6E-203">
          <mxGeometry width="50" height="50" relative="1" as="geometry">
            <mxPoint x="350" y="900" as="sourcePoint" />
            <mxPoint x="400" y="850" as="targetPoint" />
          </mxGeometry>
        </mxCell>
        <mxCell id="FgJaP-sVPUD8eVptEW6E-218" value="" style="endArrow=none;html=1;rounded=0;entryX=0.5;entryY=0;entryDx=0;entryDy=0;exitX=0;exitY=1;exitDx=0;exitDy=0;" edge="1" parent="1" source="FgJaP-sVPUD8eVptEW6E-205" target="FgJaP-sVPUD8eVptEW6E-197">
          <mxGeometry width="50" height="50" relative="1" as="geometry">
            <mxPoint x="430" y="920" as="sourcePoint" />
            <mxPoint x="480" y="870" as="targetPoint" />
          </mxGeometry>
        </mxCell>
        <mxCell id="FgJaP-sVPUD8eVptEW6E-219" value="" style="endArrow=none;html=1;rounded=0;entryX=0.5;entryY=1;entryDx=0;entryDy=0;exitX=0.5;exitY=0;exitDx=0;exitDy=0;" edge="1" parent="1" source="FgJaP-sVPUD8eVptEW6E-197" target="FgJaP-sVPUD8eVptEW6E-201">
          <mxGeometry width="50" height="50" relative="1" as="geometry">
            <mxPoint x="380" y="920" as="sourcePoint" />
            <mxPoint x="430" y="870" as="targetPoint" />
          </mxGeometry>
        </mxCell>
      </root>
    </mxGraphModel>
  </diagram>
</mxfile>
